<mxfile host="app.diagrams.net" modified="2024-02-21T04:56:29.333Z" agent="Mozilla/5.0 (Windows NT 10.0; Win64; x64) AppleWebKit/537.36 (KHTML, like Gecko) Chrome/121.0.0.0 Safari/537.36 Edg/121.0.0.0" etag="e4xuSSWO91lWM3mn3wf0" version="23.1.5" type="device">
  <diagram name="第 1 页" id="XtstTG8As7Jiu78XxAVO">
    <mxGraphModel dx="2453" dy="759" grid="1" gridSize="10" guides="1" tooltips="1" connect="1" arrows="1" fold="1" page="1" pageScale="1" pageWidth="827" pageHeight="1169" math="0" shadow="0">
      <root>
        <mxCell id="0" />
        <mxCell id="1" parent="0" />
        <mxCell id="ZMaOZWRzyumt82AVU2TV-1" value="主卧" style="whiteSpace=wrap;html=1;aspect=fixed;" parent="1" vertex="1">
          <mxGeometry x="-710" y="240" width="80" height="80" as="geometry" />
        </mxCell>
        <mxCell id="ZMaOZWRzyumt82AVU2TV-2" value="次卧1" style="whiteSpace=wrap;html=1;aspect=fixed;" parent="1" vertex="1">
          <mxGeometry x="-710" y="160" width="80" height="80" as="geometry" />
        </mxCell>
        <mxCell id="ZMaOZWRzyumt82AVU2TV-6" value="电视墙" style="rounded=0;whiteSpace=wrap;html=1;" parent="1" vertex="1">
          <mxGeometry x="-550" y="320" width="160" height="80" as="geometry" />
        </mxCell>
        <mxCell id="ZMaOZWRzyumt82AVU2TV-15" value="" style="endArrow=none;html=1;rounded=0;" parent="1" edge="1">
          <mxGeometry width="50" height="50" relative="1" as="geometry">
            <mxPoint x="-800" y="441" as="sourcePoint" />
            <mxPoint x="-10" y="441" as="targetPoint" />
          </mxGeometry>
        </mxCell>
        <mxCell id="ZMaOZWRzyumt82AVU2TV-28" value="&lt;b&gt;二楼&lt;br&gt;&lt;br&gt;&lt;u&gt;&lt;font style=&quot;font-size: 14px;&quot;&gt;3 条到电视墙&lt;br&gt;&lt;/font&gt;&lt;/u&gt;&lt;font style=&quot;font-size: 14px;&quot;&gt;&lt;u&gt;每个房间 1 条&lt;br&gt;&lt;/u&gt;&lt;/font&gt;&lt;font style=&quot;font-size: 14px;&quot;&gt;&lt;u&gt;1 条到三楼弱电箱&lt;br&gt;&lt;/u&gt;&lt;/font&gt;&lt;font style=&quot;font-size: 14px;&quot;&gt;&lt;u&gt;2 条到一楼电视墙&lt;/u&gt;&lt;/font&gt;&lt;br&gt;&lt;/b&gt;" style="text;html=1;strokeColor=none;fillColor=none;align=center;verticalAlign=middle;whiteSpace=wrap;rounded=0;" parent="1" vertex="1">
          <mxGeometry x="-310" y="482" width="220" height="120" as="geometry" />
        </mxCell>
        <mxCell id="ZMaOZWRzyumt82AVU2TV-33" value="" style="endArrow=none;html=1;rounded=0;" parent="1" edge="1">
          <mxGeometry width="50" height="50" relative="1" as="geometry">
            <mxPoint x="-810" y="761" as="sourcePoint" />
            <mxPoint x="-10" y="761" as="targetPoint" />
          </mxGeometry>
        </mxCell>
        <mxCell id="ZMaOZWRzyumt82AVU2TV-46" value="&lt;b&gt;三楼&lt;br&gt;&lt;br&gt;&lt;u&gt;&lt;font style=&quot;font-size: 14px;&quot;&gt;2 条到电视墙&lt;br&gt;每个房间 1 条&lt;br&gt;&lt;/font&gt;&lt;/u&gt;&lt;br&gt;&lt;/b&gt;" style="text;html=1;strokeColor=none;fillColor=none;align=center;verticalAlign=middle;whiteSpace=wrap;rounded=0;" parent="1" vertex="1">
          <mxGeometry x="-310" y="161" width="220" height="105" as="geometry" />
        </mxCell>
        <mxCell id="ZMaOZWRzyumt82AVU2TV-52" value="&lt;b&gt;一楼&lt;br&gt;&lt;/b&gt;" style="text;html=1;strokeColor=none;fillColor=none;align=center;verticalAlign=middle;whiteSpace=wrap;rounded=0;" parent="1" vertex="1">
          <mxGeometry x="-270" y="801" width="80" height="80" as="geometry" />
        </mxCell>
        <mxCell id="wMVOR2-MwmGd7g_UpG6d-1" value="次卧2" style="rounded=0;whiteSpace=wrap;html=1;" parent="1" vertex="1">
          <mxGeometry x="-550" y="160" width="150" height="121" as="geometry" />
        </mxCell>
        <mxCell id="wMVOR2-MwmGd7g_UpG6d-2" value="弱电箱" style="rounded=0;whiteSpace=wrap;html=1;" parent="1" vertex="1">
          <mxGeometry x="-550" y="241" width="120" height="40" as="geometry" />
        </mxCell>
        <mxCell id="wMVOR2-MwmGd7g_UpG6d-4" value="" style="endArrow=classic;html=1;rounded=0;entryX=0;entryY=0.25;entryDx=0;entryDy=0;" parent="1" target="wMVOR2-MwmGd7g_UpG6d-1" edge="1">
          <mxGeometry width="50" height="50" relative="1" as="geometry">
            <mxPoint x="-500" y="241" as="sourcePoint" />
            <mxPoint x="-450" y="191" as="targetPoint" />
          </mxGeometry>
        </mxCell>
        <mxCell id="wMVOR2-MwmGd7g_UpG6d-5" value="" style="endArrow=classic;html=1;rounded=0;entryX=0;entryY=0.5;entryDx=0;entryDy=0;" parent="1" target="wMVOR2-MwmGd7g_UpG6d-2" edge="1">
          <mxGeometry width="50" height="50" relative="1" as="geometry">
            <mxPoint x="-630" y="221" as="sourcePoint" />
            <mxPoint x="-580" y="171" as="targetPoint" />
          </mxGeometry>
        </mxCell>
        <mxCell id="wMVOR2-MwmGd7g_UpG6d-6" value="" style="endArrow=classic;html=1;rounded=0;entryX=0;entryY=0.5;entryDx=0;entryDy=0;" parent="1" target="wMVOR2-MwmGd7g_UpG6d-2" edge="1">
          <mxGeometry width="50" height="50" relative="1" as="geometry">
            <mxPoint x="-630" y="281" as="sourcePoint" />
            <mxPoint x="-580" y="231" as="targetPoint" />
          </mxGeometry>
        </mxCell>
        <mxCell id="wMVOR2-MwmGd7g_UpG6d-8" value="" style="endArrow=classic;html=1;rounded=0;entryX=0.25;entryY=0;entryDx=0;entryDy=0;" parent="1" target="ZMaOZWRzyumt82AVU2TV-6" edge="1">
          <mxGeometry width="50" height="50" relative="1" as="geometry">
            <mxPoint x="-510" y="281" as="sourcePoint" />
            <mxPoint x="-460" y="231" as="targetPoint" />
          </mxGeometry>
        </mxCell>
        <mxCell id="wMVOR2-MwmGd7g_UpG6d-9" value="" style="endArrow=classic;html=1;rounded=0;entryX=0.5;entryY=0;entryDx=0;entryDy=0;" parent="1" target="ZMaOZWRzyumt82AVU2TV-6" edge="1">
          <mxGeometry width="50" height="50" relative="1" as="geometry">
            <mxPoint x="-470" y="281" as="sourcePoint" />
            <mxPoint x="-420" y="231" as="targetPoint" />
          </mxGeometry>
        </mxCell>
        <mxCell id="wMVOR2-MwmGd7g_UpG6d-10" value="主卧" style="whiteSpace=wrap;html=1;aspect=fixed;" parent="1" vertex="1">
          <mxGeometry x="-710" y="561" width="80" height="80" as="geometry" />
        </mxCell>
        <mxCell id="wMVOR2-MwmGd7g_UpG6d-11" value="次卧1" style="whiteSpace=wrap;html=1;aspect=fixed;" parent="1" vertex="1">
          <mxGeometry x="-710" y="481" width="80" height="80" as="geometry" />
        </mxCell>
        <mxCell id="wMVOR2-MwmGd7g_UpG6d-12" value="电视墙" style="rounded=0;whiteSpace=wrap;html=1;" parent="1" vertex="1">
          <mxGeometry x="-550" y="641" width="160" height="80" as="geometry" />
        </mxCell>
        <mxCell id="wMVOR2-MwmGd7g_UpG6d-13" value="次卧2" style="rounded=0;whiteSpace=wrap;html=1;" parent="1" vertex="1">
          <mxGeometry x="-550" y="481" width="150" height="121" as="geometry" />
        </mxCell>
        <mxCell id="wMVOR2-MwmGd7g_UpG6d-14" value="弱电箱" style="rounded=0;whiteSpace=wrap;html=1;" parent="1" vertex="1">
          <mxGeometry x="-550" y="562" width="120" height="40" as="geometry" />
        </mxCell>
        <mxCell id="wMVOR2-MwmGd7g_UpG6d-15" value="" style="endArrow=classic;html=1;rounded=0;entryX=0;entryY=0.25;entryDx=0;entryDy=0;" parent="1" target="wMVOR2-MwmGd7g_UpG6d-13" edge="1">
          <mxGeometry width="50" height="50" relative="1" as="geometry">
            <mxPoint x="-500" y="562" as="sourcePoint" />
            <mxPoint x="-450" y="512" as="targetPoint" />
          </mxGeometry>
        </mxCell>
        <mxCell id="wMVOR2-MwmGd7g_UpG6d-16" value="" style="endArrow=classic;html=1;rounded=0;entryX=0;entryY=0.5;entryDx=0;entryDy=0;" parent="1" target="wMVOR2-MwmGd7g_UpG6d-14" edge="1">
          <mxGeometry width="50" height="50" relative="1" as="geometry">
            <mxPoint x="-630" y="542" as="sourcePoint" />
            <mxPoint x="-580" y="492" as="targetPoint" />
          </mxGeometry>
        </mxCell>
        <mxCell id="wMVOR2-MwmGd7g_UpG6d-17" value="" style="endArrow=classic;html=1;rounded=0;entryX=0;entryY=0.5;entryDx=0;entryDy=0;" parent="1" target="wMVOR2-MwmGd7g_UpG6d-14" edge="1">
          <mxGeometry width="50" height="50" relative="1" as="geometry">
            <mxPoint x="-630" y="602" as="sourcePoint" />
            <mxPoint x="-580" y="552" as="targetPoint" />
          </mxGeometry>
        </mxCell>
        <mxCell id="wMVOR2-MwmGd7g_UpG6d-18" value="" style="endArrow=classic;html=1;rounded=0;entryX=0.25;entryY=0;entryDx=0;entryDy=0;" parent="1" target="wMVOR2-MwmGd7g_UpG6d-12" edge="1">
          <mxGeometry width="50" height="50" relative="1" as="geometry">
            <mxPoint x="-510" y="602" as="sourcePoint" />
            <mxPoint x="-460" y="552" as="targetPoint" />
          </mxGeometry>
        </mxCell>
        <mxCell id="wMVOR2-MwmGd7g_UpG6d-19" value="" style="endArrow=classic;html=1;rounded=0;entryX=0.5;entryY=0;entryDx=0;entryDy=0;" parent="1" target="wMVOR2-MwmGd7g_UpG6d-12" edge="1">
          <mxGeometry width="50" height="50" relative="1" as="geometry">
            <mxPoint x="-470" y="602" as="sourcePoint" />
            <mxPoint x="-420" y="552" as="targetPoint" />
          </mxGeometry>
        </mxCell>
        <mxCell id="wMVOR2-MwmGd7g_UpG6d-20" value="" style="endArrow=classic;html=1;rounded=0;entryX=0;entryY=0.5;entryDx=0;entryDy=0;" parent="1" target="wMVOR2-MwmGd7g_UpG6d-2" edge="1">
          <mxGeometry width="50" height="50" relative="1" as="geometry">
            <mxPoint x="-550" y="581" as="sourcePoint" />
            <mxPoint x="-500" y="531" as="targetPoint" />
            <Array as="points">
              <mxPoint x="-590" y="421" />
            </Array>
          </mxGeometry>
        </mxCell>
        <mxCell id="wMVOR2-MwmGd7g_UpG6d-21" value="" style="endArrow=classic;html=1;rounded=0;entryX=0.75;entryY=0;entryDx=0;entryDy=0;" parent="1" target="wMVOR2-MwmGd7g_UpG6d-12" edge="1">
          <mxGeometry width="50" height="50" relative="1" as="geometry">
            <mxPoint x="-430" y="601" as="sourcePoint" />
            <mxPoint x="-380" y="551" as="targetPoint" />
          </mxGeometry>
        </mxCell>
        <mxCell id="wMVOR2-MwmGd7g_UpG6d-22" value="电视墙" style="rounded=0;whiteSpace=wrap;html=1;" parent="1" vertex="1">
          <mxGeometry x="-750" y="801" width="160" height="80" as="geometry" />
        </mxCell>
        <mxCell id="wMVOR2-MwmGd7g_UpG6d-23" value="" style="endArrow=classic;html=1;rounded=0;entryX=0.25;entryY=0;entryDx=0;entryDy=0;" parent="1" target="wMVOR2-MwmGd7g_UpG6d-22" edge="1">
          <mxGeometry width="50" height="50" relative="1" as="geometry">
            <mxPoint x="-550" y="601" as="sourcePoint" />
            <mxPoint x="-500" y="551" as="targetPoint" />
          </mxGeometry>
        </mxCell>
        <mxCell id="wMVOR2-MwmGd7g_UpG6d-24" value="" style="endArrow=classic;html=1;rounded=0;entryX=0.5;entryY=0;entryDx=0;entryDy=0;" parent="1" target="wMVOR2-MwmGd7g_UpG6d-22" edge="1">
          <mxGeometry width="50" height="50" relative="1" as="geometry">
            <mxPoint x="-550" y="601" as="sourcePoint" />
            <mxPoint x="-500" y="551" as="targetPoint" />
          </mxGeometry>
        </mxCell>
        <mxCell id="wMVOR2-MwmGd7g_UpG6d-28" value="" style="endArrow=classic;html=1;rounded=0;" parent="1" edge="1">
          <mxGeometry width="50" height="50" relative="1" as="geometry">
            <mxPoint x="-810" y="592" as="sourcePoint" />
            <mxPoint x="-550" y="592" as="targetPoint" />
          </mxGeometry>
        </mxCell>
        <mxCell id="wMVOR2-MwmGd7g_UpG6d-29" value="&lt;font style=&quot;font-size: 14px;&quot;&gt;光纤入户&lt;/font&gt;" style="edgeLabel;html=1;align=center;verticalAlign=middle;resizable=0;points=[];" parent="wMVOR2-MwmGd7g_UpG6d-28" vertex="1" connectable="0">
          <mxGeometry x="-0.6286" y="-2" relative="1" as="geometry">
            <mxPoint as="offset" />
          </mxGeometry>
        </mxCell>
      </root>
    </mxGraphModel>
  </diagram>
</mxfile>
